<svg width="30" height="30" viewBox="0 0 30 30" fill="none" xmlns="http://www.w3.org/2000/svg">
<path d="M16.542 0.00184553C17.6366 -0.00235466 18.7311 0.00864614 19.8253 0.0348445L20.1163 0.0453441C20.4523 0.0573437 20.7838 0.0723432 21.1843 0.0903425C22.7802 0.16534 23.8691 0.417332 24.8246 0.787819C25.8145 1.16881 26.6485 1.68479 27.4825 2.51876C28.245 3.26814 28.8351 4.17462 29.2119 5.17517C29.5823 6.13064 29.8343 7.2211 29.9093 8.81705C29.9273 9.21603 29.9423 9.54902 29.9543 9.88501L29.9633 10.176C29.99 11.2698 30.0015 12.3638 29.9978 13.4579L29.9993 14.5769V16.5418C30.003 17.6364 29.9915 18.7309 29.9648 19.8252L29.9558 20.1162C29.9438 20.4522 29.9288 20.7836 29.9108 21.1841C29.8358 22.7801 29.5808 23.869 29.2119 24.8245C28.8364 25.8261 28.2461 26.7333 27.4825 27.4824C26.7324 28.2449 25.8255 28.835 24.8246 29.2119C23.8691 29.5823 22.7802 29.8343 21.1843 29.9093C20.7838 29.9273 20.4523 29.9423 20.1163 29.9543L19.8253 29.9633C18.7311 29.99 17.6366 30.0015 16.542 29.9978L15.4231 29.9993H13.4597C12.3651 30.003 11.2706 29.9915 10.1763 29.9648L9.88536 29.9558C9.52929 29.9429 9.1733 29.9279 8.81741 29.9108C7.22149 29.8358 6.13255 29.5808 5.1756 29.2119C4.17468 28.8359 3.26805 28.2456 2.51924 27.4824C1.75584 26.7329 1.16514 25.8258 0.788325 24.8245C0.417844 23.869 0.165857 22.7801 0.0908607 21.1841C0.074156 20.8282 0.0591566 20.4722 0.0458631 20.1162L0.0383637 19.8252C0.0107105 18.7309 -0.00179023 17.6364 0.000865457 16.5418V13.4579C-0.00332078 12.3638 0.00767983 11.2698 0.0338639 10.176L0.0443633 9.88501C0.0563627 9.54902 0.0713619 9.21603 0.0893609 8.81705C0.164357 7.2196 0.416344 6.13214 0.786825 5.17517C1.16386 4.17413 1.75572 3.2679 2.52074 2.52026C3.26904 1.75641 4.17509 1.16517 5.1756 0.787819C6.13255 0.417332 7.21999 0.16534 8.81741 0.0903425L9.88536 0.0453441L10.1763 0.0378446C11.2701 0.0102047 12.3641 -0.0022962 13.4582 0.00034569L16.542 0.00184553ZM15.0001 7.50159C14.0064 7.48754 13.0198 7.67112 12.0977 8.04167C11.1756 8.41223 10.3363 8.96236 9.62864 9.6601C8.92097 10.3578 8.35904 11.1893 7.97549 12.1061C7.59194 13.0229 7.39442 14.0068 7.39442 15.0006C7.39442 15.9944 7.59194 16.9783 7.97549 17.8951C8.35904 18.8119 8.92097 19.6433 9.62864 20.3411C10.3363 21.0388 11.1756 21.5889 12.0977 21.9595C13.0198 22.3301 14.0064 22.5136 15.0001 22.4996C16.9891 22.4996 18.8967 21.7094 20.3031 20.303C21.7096 18.8965 22.4997 16.9889 22.4997 14.9998C22.4997 13.0108 21.7096 11.1032 20.3031 9.69671C18.8967 8.29024 16.9891 7.50159 15.0001 7.50159ZM15.0001 10.5015C15.5978 10.4905 16.1918 10.5987 16.7472 10.8198C17.3026 11.0409 17.8085 11.3705 18.2351 11.7893C18.6617 12.2081 19.0007 12.7077 19.232 13.2589C19.4634 13.8102 19.5827 14.402 19.5828 14.9998C19.5829 15.5977 19.4638 16.1895 19.2326 16.7409C19.0014 17.2922 18.6627 17.7919 18.2362 18.2108C17.8097 18.6298 17.304 18.9595 16.7486 19.1808C16.1932 19.4021 15.5993 19.5105 15.0016 19.4997C13.8082 19.4997 12.6636 19.0256 11.8198 18.1817C10.9759 17.3378 10.5018 16.1933 10.5018 14.9998C10.5018 13.8064 10.9759 12.6618 11.8198 11.818C12.6636 10.9741 13.8082 10.5 15.0016 10.5L15.0001 10.5015ZM22.8747 5.25167C22.3908 5.27103 21.9332 5.47689 21.5977 5.8261C21.2621 6.17532 21.0748 6.64082 21.0748 7.1251C21.0748 7.60939 21.2621 8.07488 21.5977 8.4241C21.9332 8.77332 22.3908 8.97917 22.8747 8.99854C23.3719 8.99854 23.8488 8.801 24.2005 8.44938C24.5521 8.09776 24.7496 7.62087 24.7496 7.1236C24.7496 6.62634 24.5521 6.14944 24.2005 5.79782C23.8488 5.4462 23.3719 5.24867 22.8747 5.24867V5.25167Z" fill="#C4C4C4"/>
</svg>
