<svg width="36" height="30" viewBox="0 0 36 30" fill="none" xmlns="http://www.w3.org/2000/svg">
<path d="M36 3.52941C34.6749 4.14706 33.2467 4.55294 31.7667 4.74706C33.2811 3.81176 34.4512 2.32941 35.0019 0.547059C33.5736 1.42941 31.9904 2.04706 30.3212 2.4C28.9618 0.882353 27.0516 0 24.8834 0C20.8394 0 17.5354 3.38824 17.5354 7.57059C17.5354 8.17059 17.6042 8.75294 17.7247 9.3C11.5985 8.98235 6.1434 5.96471 2.51243 1.39412C1.87572 2.50588 1.51434 3.81176 1.51434 5.18824C1.51434 7.81765 2.80497 10.1471 4.80115 11.4706C3.57935 11.4706 2.44359 11.1176 1.44551 10.5882V10.6412C1.44551 14.3118 3.99235 17.3824 7.3652 18.0706C6.28232 18.3745 5.14548 18.4168 4.04398 18.1941C4.51137 19.6985 5.42674 21.0148 6.66141 21.9581C7.89607 22.9014 9.38796 23.4242 10.9273 23.4529C8.31791 25.5714 5.08336 26.7164 1.75526 26.7C1.17017 26.7 0.585086 26.6647 0 26.5941C3.2696 28.7471 7.1587 30 11.3231 30C24.8834 30 32.3346 18.4588 32.3346 8.45294C32.3346 8.11765 32.3346 7.8 32.3174 7.4647C33.7629 6.40588 35.0019 5.06471 36 3.52941Z" fill="#C4C4C4"/>
</svg>
