<svg width="43" height="30" viewBox="0 0 43 30" fill="none" xmlns="http://www.w3.org/2000/svg">
<path d="M17.1743 21.4286L28.3161 15L17.1743 8.57143V21.4286ZM41.9911 4.65C42.2701 5.65714 42.4634 7.00714 42.5922 8.72143C42.7424 10.4357 42.8068 11.9143 42.8068 13.2L42.9356 15C42.9356 19.6929 42.5922 23.1429 41.9911 25.35C41.4544 27.2786 40.2092 28.5214 38.2771 29.0571C37.2681 29.3357 35.4219 29.5286 32.5882 29.6571C29.7973 29.8071 27.2427 29.8714 24.8812 29.8714L21.4678 30C12.4728 30 6.8697 29.6571 4.65852 29.0571C2.72641 28.5214 1.48128 27.2786 0.944584 25.35C0.665503 24.3429 0.472292 22.9929 0.343485 21.2786C0.193211 19.5643 0.128807 18.0857 0.128807 16.8L0 15C0 10.3071 0.343485 6.85714 0.944584 4.65C1.48128 2.72143 2.72641 1.47857 4.65852 0.942857C5.66751 0.664286 7.51374 0.471428 10.3475 0.342857C13.1383 0.192857 15.693 0.128571 18.0544 0.128571L21.4678 0C30.4628 0 36.0659 0.342857 38.2771 0.942857C40.2092 1.47857 41.4544 2.72143 41.9911 4.65Z" fill="#C4C4C4"/>
</svg>
